<?xml version="1.0" encoding="UTF-8"?>
<svg id="Layer_1" xmlns="http://www.w3.org/2000/svg" xmlns:xlink="http://www.w3.org/1999/xlink" version="1.1" viewBox="0 0 24 24">
  <!-- Generator: Adobe Illustrator 29.8.1, SVG Export Plug-In . SVG Version: 2.1.1 Build 2)  -->
  <defs>
    <style>
      .st0 {
        fill: none;
      }

      .st1 {
        filter: url(#drop-shadow-1);
      }

      .st2 {
        fill: #ffa914;
        fill-rule: evenodd;
      }
    </style>
    <filter id="drop-shadow-1" x="2" y="-1" width="25" height="25" filterUnits="userSpaceOnUse">
      <feOffset dx="1" dy="1"/>
      <feGaussianBlur result="blur" stdDeviation="1"/>
      <feFlood flood-color="#000" flood-opacity=".8"/>
      <feComposite in2="blur" operator="in"/>
      <feComposite in="SourceGraphic"/>
    </filter>
  </defs>
  <rect class="st0" width="24" height="24"/>
  <g class="st1">
    <path class="st2" d="M16.9,12.7l3.5-3.5.7.7c.4.4,1,.4,1.4,0h0c.4-.4.4-1,0-1.4L15.5,1.4c-.4-.4-1-.4-1.4,0h0c-.4.4-.4,1,0,1.4l.7.7-3.5,3.5c-1.2,1.2-3.1,1.2-4.2,0h0l-1.4,1.4,4.2,4.2-4.9,4.9v1.4h1.4l4.9-4.9,4.3,4.3,1.4-1.4h0c-1.2-1.2-1.2-3.1,0-4.2Z"/>
  </g>
</svg>